<svg width="74" height="74" viewBox="0 0 74 74" fill="none" xmlns="http://www.w3.org/2000/svg">
<path id="Vector" d="M69.375 32.375H41.625V4.625C41.625 3.39837 41.1377 2.22199 40.2704 1.35463C39.403 0.487276 38.2266 0 37 0C35.7734 0 34.597 0.487276 33.7296 1.35463C32.8623 2.22199 32.375 3.39837 32.375 4.625V32.375H4.625C3.39837 32.375 2.22199 32.8623 1.35463 33.7296C0.487276 34.597 0 35.7734 0 37C0 38.2266 0.487276 39.403 1.35463 40.2704C2.22199 41.1377 3.39837 41.625 4.625 41.625H32.375V69.375C32.375 70.6016 32.8623 71.778 33.7296 72.6454C34.597 73.5127 35.7734 74 37 74C38.2266 74 39.403 73.5127 40.2704 72.6454C41.1377 71.778 41.625 70.6016 41.625 69.375V41.625H69.375C70.6016 41.625 71.778 41.1377 72.6454 40.2704C73.5127 39.403 74 38.2266 74 37C74 35.7734 73.5127 34.597 72.6454 33.7296C71.778 32.8623 70.6016 32.375 69.375 32.375Z" fill="white"/>
</svg>
